# xmcd
#
# Track frame offsets:
#	150
#	12867
#	25670
#	40463
#	53940
#	76234
#	92727
#	106448
#	120210
#	145178
#	165595
#	184778
#	196365
#	216321
#	232869
#	250701
#	273637
#	296234
#	317608
#
# Disc length: 4605 seconds
#
# Revision: 0
# Processed by: cddbd v1.5.2PL0 Copyright (c) Steve Scherf et al.
# Submitted via: audiograbber 1.83.01
#
DISCID=0511fb13
DTITLE=Clasic Rock - Blues Rock
DYEAR=2006
DGENRE=Blues
TTITLE0=Cream - Strange Brew
TTITLE1=Fleetwood Mac - Man Of The World
TTITLE2=Santana - Black Magic Woman
TTITLE3=Free - I'm A Mover
TTITLE4=Canned Heat - On The Road Again
TTITLE5=The Allman Brothers Band - Ramblin' Man
TTITLE6=Frankie Miller - Be Good To Yourself
TTITLE7=Juicy Lucy - Who Do You Love
TTITLE8=Alexis Korner - Get Off My Cloud
TTITLE9=Jack Bruce - Sunshine Of Your Love
TTITLE10=Humble Pie - Natural Born Boogie
TTITLE11=Mountain - Mississippi Queen
TTITLE12=Big Brother And The Holding Company - Piece Of My Heart
TTITLE13=Python Lee Jackson - In A Broken Dream
TTITLE14=Ram Jam - Black Betty
TTITLE15=Golden Earring - Radar Love
TTITLE16=The Groundhogs - Groundhog Blues
TTITLE17=Wishbone Ash - Jail Bait
TTITLE18=Gary Moore - Still Got The Blues
EXTD=
EXTT0=
EXTT1=
EXTT2=
EXTT3=
EXTT4=
EXTT5=
EXTT6=
EXTT7=
EXTT8=
EXTT9=
EXTT10=
EXTT11=
EXTT12=
EXTT13=
EXTT14=
EXTT15=
EXTT16=
EXTT17=
EXTT18=
PLAYORDER=
